<svg xmlns="http://www.w3.org/2000/svg" viewBox="0 0 1200 700" role="img" aria-label="Large boat at sea">
  <defs>
    <linearGradient id="sky" x1="0" y1="0" x2="0" y2="1">
      <stop offset="0%" stop-color="#9bc7f2"/>
      <stop offset="100%" stop-color="#d6ebff"/>
    </linearGradient>
    <linearGradient id="sea" x1="0" y1="0" x2="0" y2="1">
      <stop offset="0%" stop-color="#3a7db3"/>
      <stop offset="100%" stop-color="#1f4d77"/>
    </linearGradient>
  </defs>
  <rect width="1200" height="430" fill="url(#sky)"/>
  <rect y="430" width="1200" height="270" fill="url(#sea)"/>
  <ellipse cx="640" cy="430" rx="320" ry="46" fill="#2e5f8e" opacity="0.45"/>
  <polygon points="290,420 950,420 840,520 370,520" fill="#1d2e3d"/>
  <rect x="450" y="305" width="300" height="120" fill="#f5f7fa"/>
  <rect x="495" y="250" width="160" height="60" fill="#f5f7fa"/>
  <rect x="510" y="268" width="26" height="26" fill="#7fb1db"/>
  <rect x="545" y="268" width="26" height="26" fill="#7fb1db"/>
  <rect x="580" y="268" width="26" height="26" fill="#7fb1db"/>
  <rect x="615" y="268" width="26" height="26" fill="#7fb1db"/>
  <rect x="470" y="330" width="42" height="38" fill="#7fb1db"/>
  <rect x="525" y="330" width="42" height="38" fill="#7fb1db"/>
  <rect x="580" y="330" width="42" height="38" fill="#7fb1db"/>
  <rect x="635" y="330" width="42" height="38" fill="#7fb1db"/>
  <rect x="690" y="330" width="42" height="38" fill="#7fb1db"/>
  <rect x="718" y="250" width="8" height="105" fill="#22303f"/>
  <polygon points="726,255 780,275 726,295" fill="#e23f3f"/>
  <path d="M0,548 C120,532 230,562 350,548 C470,534 590,562 710,548 C830,534 950,562 1200,546 L1200,700 L0,700 Z" fill="#19405f" opacity="0.55"/>
</svg>
